# xmcd CD database file
#
# Track frame offsets:
#	150
#	20547
#	55255
#	73990
#
# Disc length: 1256 seconds
#
# Revision: 0
# Processed by: cddbd v1.5.1PL0 Copyright (c) Steve Scherf et al.
# Submitted via: CDex 1.51
#
DISCID=3504e604
DTITLE=566 featuring SAYURI NAKANO - Never Say Why，Never Say No
DYEAR=2000
DGENRE=JPop
TTITLE0=Never Say Why，Never Say No (Original mix)
TTITLE1=Never Say Why，Never Say No (Extended club mix)
TTITLE2=マジドジ〜西口で逢いましょう〜 (滋養強壮エキス mix) performed by 566
TTITLE3=Never Say Why，Never Say No (TV mix)
EXTD=YEAR: 2000
EXTT0=
EXTT1=
EXTT2=
EXTT3=
PLAYORDER=
